<svg xmlns="http://www.w3.org/2000/svg" viewBox="0 0 320.28 320.28"><defs><style>.cls-1{fill:#fff;}.cls-2{fill:#8b55fe;}</style></defs><g id="Layer_2" data-name="Layer 2"><g id="Layer_1-2" data-name="Layer 1"><rect class="cls-1" width="320.28" height="320.28" rx="75.52"/><path class="cls-2" d="M160.14,47.34h0A66.66,66.66,0,0,1,226.8,114v19.73A26.84,26.84,0,0,1,200,160.57H120.32a26.84,26.84,0,0,1-26.84-26.84V114A66.66,66.66,0,0,1,160.14,47.34Z"/><path class="cls-2" d="M103.33,169.12a6.47,6.47,0,0,1,6.46,6.47V194.2a29.84,29.84,0,0,1-58.51,8.29,6.47,6.47,0,0,1,6.2-8.29h.26a6.37,6.37,0,0,1,6.09,4.67,16.78,16.78,0,0,0,32.9-4.67V175.59a6.47,6.47,0,0,1,6.47-6.47Z"/><path class="cls-2" d="M143.37,169.12a6.47,6.47,0,0,1,6.46,6.47V243.1a29.84,29.84,0,0,1-58.51,8.29,6.47,6.47,0,0,1,6.2-8.29h.26a6.37,6.37,0,0,1,6.09,4.67,16.78,16.78,0,0,0,32.9-4.67V175.59a6.47,6.47,0,0,1,6.47-6.47Z"/><path class="cls-2" d="M217,169.12a6.47,6.47,0,0,0-6.46,6.47v3.5A29.84,29.84,0,0,0,269,187.37a6.47,6.47,0,0,0-6.21-8.28h-.25a6.36,6.36,0,0,0-6.09,4.67,16.79,16.79,0,0,1-32.91-4.67v-3.5a6.47,6.47,0,0,0-6.46-6.47Z"/><path class="cls-2" d="M176.89,169.12a6.47,6.47,0,0,0-6.46,6.47V227.1A29.85,29.85,0,0,0,229,235.38a6.48,6.48,0,0,0-6.21-8.28h-.26a6.38,6.38,0,0,0-6.09,4.67,16.78,16.78,0,0,1-32.9-4.67V175.59a6.47,6.47,0,0,0-6.47-6.47Z"/></g></g></svg>